<?xml version="1.0" encoding="utf-8"?>
<!-- Generator: Adobe Illustrator 18.1.1, SVG Export Plug-In . SVG Version: 6.00 Build 0)  -->
<!DOCTYPE svg PUBLIC "-//W3C//DTD SVG 1.1//EN" "http://www.w3.org/Graphics/SVG/1.1/DTD/svg11.dtd">
<svg version="1.1" id="Layer_1" xmlns="http://www.w3.org/2000/svg" xmlns:xlink="http://www.w3.org/1999/xlink" x="0px" y="0px"
	 width="24px" height="24px" viewBox="0 0 24 24" enable-background="new 0 0 24 24" xml:space="preserve">
<g>
	<path fill="#FFFFFF" d="M4.3,11.7L5.2,15h1.3l1.6-5.2H6.8l-1,3.4L5,9.9H3.7l-0.9,3.4l-1-3.4H0.5L2.1,15h1.3L4.3,11.7z M12.7,9.9
		h-1.3l-0.9,3.4l-1-3.4H8.2L9.8,15h1.3l0.9-3.3l0.9,3.3h1.3l1.6-5.2h-1.3l-1,3.4L12.7,9.9z M22.2,9.9l-1,3.4l-0.9-3.4H19l-0.9,3.4
		l-1-3.4h-1.3l1.6,5.2h1.3l0.9-3.3l0.9,3.3h1.3l1.6-5.2H22.2z M12,22.5c4,0,7.4-2.4,8.9-5.8H3.1C4.6,20.1,8,22.5,12,22.5z M12,2.5
		c-4,0-7.4,2.4-8.9,5.8H21C19.4,4.9,16,2.5,12,2.5z"/>
</g>
</svg>
