<?xml version="1.0" encoding="utf-8"?>
<!-- Generator: Adobe Illustrator 18.1.1, SVG Export Plug-In . SVG Version: 6.00 Build 0)  -->
<!DOCTYPE svg PUBLIC "-//W3C//DTD SVG 1.1//EN" "http://www.w3.org/Graphics/SVG/1.1/DTD/svg11.dtd">
<svg version="1.1" id="Layer_1" xmlns="http://www.w3.org/2000/svg" xmlns:xlink="http://www.w3.org/1999/xlink" x="0px" y="0px"
	 width="24px" height="24px" viewBox="0 0 24 24" enable-background="new 0 0 24 24" xml:space="preserve">
<path fill="#FFFFFF" d="M8.7,4.5c0-0.1,0-0.5,0.1-0.9C8.8,3,9,2.6,9.3,2c0.3-0.5,0.8-1,1.6-1.4C11.6,0.2,12.6,0,14,0h3.8v4.2H15
	c-0.3,0-0.5,0.1-0.8,0.3c-0.2,0.2-0.3,0.4-0.3,0.6v2.6h3.9c0,0.5-0.1,1-0.1,1.5l-0.2,1.3c-0.1,0.4-0.1,0.8-0.2,1.2h-3.5v11.5H8.7
	V11.6H6.2v-4h2.5V4.5z"/>
</svg>
