<?xml version="1.0" encoding="utf-8"?>
<!-- Generator: Adobe Illustrator 18.1.1, SVG Export Plug-In . SVG Version: 6.00 Build 0)  -->
<!DOCTYPE svg PUBLIC "-//W3C//DTD SVG 1.1//EN" "http://www.w3.org/Graphics/SVG/1.1/DTD/svg11.dtd">
<svg version="1.1" id="Layer_1" xmlns="http://www.w3.org/2000/svg" xmlns:xlink="http://www.w3.org/1999/xlink" x="0px" y="0px"
	 width="24px" height="24px" viewBox="0 0 24 24" enable-background="new 0 0 24 24" xml:space="preserve">
<path fill="#FFFFFF" d="M12.5,0.1c-4.8,0-8.6,4-8.6,8.8c0,1.3,0.3,2.5,0.8,3.6c2.2,4.8,6.3,9.9,7.5,11.4c0.1,0.1,0.2,0.2,0.4,0.2
	c0.1,0,0.3-0.1,0.4-0.2c1.2-1.4,5.4-6.6,7.5-11.4c0.5-1.1,0.8-2.3,0.8-3.6C21.1,4.1,17.3,0.1,12.5,0.1z M12.5,13.5
	c-2.5,0-4.5-2-4.5-4.6c0-2.5,2-4.6,4.5-4.6S17,6.4,17,8.9C17,11.5,15,13.5,12.5,13.5z"/>
</svg>
