<?xml version="1.0" encoding="utf-8"?>
<!-- Generator: Adobe Illustrator 18.1.1, SVG Export Plug-In . SVG Version: 6.00 Build 0)  -->
<!DOCTYPE svg PUBLIC "-//W3C//DTD SVG 1.1//EN" "http://www.w3.org/Graphics/SVG/1.1/DTD/svg11.dtd">
<svg version="1.1" id="Layer_1" xmlns="http://www.w3.org/2000/svg" xmlns:xlink="http://www.w3.org/1999/xlink" x="0px" y="0px"
	 width="126px" height="126px" viewBox="0 0 126 126" enable-background="new 0 0 126 126" xml:space="preserve">
<g>
	<path fill="#FFFFFF" d="M62.5,1.8c33.5,0,60.7,27.2,60.7,60.7S96,123.2,62.5,123.2S1.8,96,1.8,62.5S29,1.8,62.5,1.8 M62.5-0.2
		C27.9-0.2-0.2,27.9-0.2,62.5s28.1,62.7,62.7,62.7s62.7-28.1,62.7-62.7S97.1-0.2,62.5-0.2L62.5-0.2z"/>
</g>
<path fill="#FFFFFF" d="M79.9,65.3c0.1-0.9,0.2-1.8,0.2-2.8c0-9.7-7.9-17.6-17.6-17.6c-0.9,0-1.9,0.1-2.8,0.2
	c-1.6-1-3.5-1.6-5.6-1.6c-5.9,0-10.7,4.8-10.7,10.7c0,2.1,0.6,4,1.6,5.6c-0.1,0.9-0.2,1.8-0.2,2.8c0,9.7,7.9,17.6,17.6,17.6
	c0.9,0,1.9-0.1,2.8-0.2c1.6,1,3.5,1.6,5.6,1.6c5.9,0,10.7-4.8,10.7-10.7C81.5,68.8,80.9,66.9,79.9,65.3z M70.9,70.5
	c-0.7,1.1-1.8,1.9-3.3,2.5c-1.4,0.6-3.1,0.9-5.1,0.9c-2.3,0-4.3-0.4-5.8-1.2c-1.1-0.6-2-1.4-2.7-2.4s-1-2-1-2.9c0-0.6,0.2-1,0.6-1.4
	c0.4-0.4,1-0.6,1.6-0.6c0.5,0,1,0.2,1.3,0.5c0.4,0.3,0.7,0.8,0.9,1.4c0.3,0.7,0.6,1.3,1,1.7c0.3,0.5,0.8,0.8,1.5,1.1
	c0.6,0.3,1.4,0.4,2.5,0.4c1.4,0,2.5-0.3,3.4-0.9s1.3-1.3,1.3-2.2c0-0.7-0.2-1.3-0.7-1.7c-0.5-0.4-1.1-0.8-1.8-1
	c-0.8-0.2-1.8-0.5-3-0.8c-1.7-0.4-3.1-0.8-4.3-1.3c-1.2-0.5-2.1-1.2-2.8-2c-0.7-0.9-1-2-1-3.2s0.4-2.3,1.1-3.3
	c0.7-1,1.8-1.7,3.1-2.2c1.4-0.5,3-0.8,4.8-0.8c1.5,0,2.7,0.2,3.8,0.5s2,0.8,2.7,1.3c0.7,0.6,1.2,1.2,1.6,1.8
	c0.3,0.6,0.5,1.2,0.5,1.8s-0.2,1.1-0.6,1.5s-0.9,0.7-1.6,0.7c-0.6,0-1-0.1-1.3-0.4C67.3,58,67,57.6,66.7,57
	c-0.4-0.8-0.9-1.5-1.5-1.9s-1.5-0.7-2.9-0.7c-1.2,0-2.2,0.3-3,0.7c-0.7,0.5-1.1,1.1-1.1,1.8c0,0.4,0.1,0.8,0.4,1.1
	c0.2,0.3,0.6,0.6,1,0.8s0.9,0.4,1.4,0.5s1.2,0.3,2.3,0.6c1.3,0.3,2.5,0.6,3.6,1s2,0.8,2.8,1.3s1.4,1.1,1.8,1.9
	c0.4,0.8,0.6,1.7,0.6,2.8C72,68.2,71.6,69.4,70.9,70.5z"/>
</svg>
