<?xml version="1.0" encoding="utf-8"?>
<!-- Generator: Adobe Illustrator 18.1.1, SVG Export Plug-In . SVG Version: 6.00 Build 0)  -->
<!DOCTYPE svg PUBLIC "-//W3C//DTD SVG 1.1//EN" "http://www.w3.org/Graphics/SVG/1.1/DTD/svg11.dtd">
<svg version="1.1" id="Layer_1" xmlns="http://www.w3.org/2000/svg" xmlns:xlink="http://www.w3.org/1999/xlink" x="0px" y="0px"
	 width="30px" height="30px" viewBox="0 0 30 30" enable-background="new 0 0 30 30" xml:space="preserve">
<g>
	<g>
		<path fill="#171717" d="M15.5,18.7l-2.7-2.4L5,23.1c0.3,0.3,0.7,0.4,1.1,0.4h18.8c0.4,0,0.8-0.2,1.1-0.4l-7.8-6.8L15.5,18.7z
			 M26,7.9c-0.3-0.3-0.7-0.4-1.1-0.4H6.1C5.7,7.5,5.3,7.7,5,7.9l10.5,9.1L26,7.9z M4.5,8.9v13.3l7.6-6.6L4.5,8.9z M18.9,15.6
			l7.6,6.6V8.9L18.9,15.6z"/>
	</g>
</g>
</svg>
