<?xml version="1.0" encoding="utf-8"?>
<!-- Generator: Adobe Illustrator 18.1.1, SVG Export Plug-In . SVG Version: 6.00 Build 0)  -->
<!DOCTYPE svg PUBLIC "-//W3C//DTD SVG 1.1//EN" "http://www.w3.org/Graphics/SVG/1.1/DTD/svg11.dtd">
<svg version="1.1" id="Layer_1" xmlns="http://www.w3.org/2000/svg" xmlns:xlink="http://www.w3.org/1999/xlink" x="0px" y="0px"
	 width="30px" height="30px" viewBox="0 0 30 30" enable-background="new 0 0 30 30" xml:space="preserve">
<path fill="#171717" d="M13.4,17.1c1.9,2,4.1,3.8,4.9,2.9c1.2-1.3,2-2.4,4.7-0.1c2.7,2.3,0.6,3.8-0.5,5.1c-1.4,1.4-6.5,0.1-11.6-5.2
	c-5.1-5.3-6.4-10.7-5-12.1C7.1,6.4,8.5,4.2,10.7,7c2.2,2.8,1.1,3.6-0.1,4.9C9.7,12.9,11.5,15.1,13.4,17.1z M16.2,7.7
	c0,0-0.6-0.1-1,0.3c-0.4,0.4-0.4,1.2,0,1.6c0.3,0.3,0.6,0.3,0.6,0.3c0.7,0.1,1.8,0.4,2.9,1.6c1.1,1.2,1.3,2.3,1.5,3
	c0,0,0.1,0.4,0.3,0.6c0.4,0.5,1.1,0.4,1.5,0c0.4-0.4,0.3-1,0.3-1c-0.2-1.5-0.9-3-2.1-4.3C19.1,8.7,17.6,8,16.2,7.7z M21.5,8.6
	c2.1,2.2,2.9,4.6,2.7,6.6c0,0-0.1,0.6,0.3,1c0.4,0.5,1.1,0.4,1.6,0c0.3-0.3,0.3-0.7,0.3-0.7c0.2-1.7-0.1-5.2-3.3-8.5
	c-3.2-3.4-6.5-3.7-8.1-3.4c0,0-0.4,0.1-0.7,0.3c-0.4,0.4-0.4,1.2,0,1.6c0.4,0.4,1,0.3,1,0.3C17.1,5.5,19.4,6.5,21.5,8.6z"/>
</svg>
