<?xml version="1.0" encoding="utf-8"?>
<!-- Generator: Adobe Illustrator 18.1.1, SVG Export Plug-In . SVG Version: 6.00 Build 0)  -->
<!DOCTYPE svg PUBLIC "-//W3C//DTD SVG 1.1//EN" "http://www.w3.org/Graphics/SVG/1.1/DTD/svg11.dtd">
<svg version="1.1" id="Layer_1" xmlns="http://www.w3.org/2000/svg" xmlns:xlink="http://www.w3.org/1999/xlink" x="0px" y="0px"
	 width="67px" height="75.9px" viewBox="0 0 67 75.9" enable-background="new 0 0 67 75.9" xml:space="preserve">
<path fill-rule="evenodd" clip-rule="evenodd" fill="#171717" d="M67,33.5C67,15,52,0,33.5,0C15,0,0,15,0,33.5
	c0,14.9,9.8,27.6,23.3,31.9l-0.1,0.1l10.4,10.4l10.4-10.4l-0.1-0.1C57.2,61.1,67,48.4,67,33.5z"/>
<path fill="#FFFFFF" d="M45.5,28.3h-0.3h-4.8h-0.3h-4.5h-0.3h-4.5h-0.3h-4.8h-0.3H21h-0.3h-5.1v0.3v4.8h5.1v5.1h4.8v4.8h5.1v5.1h4.8
	h0.3v-5.1h4.5h0.3v-4.8h4.8h0.3v-5.1H50h0.3v-5.1H45.5z M40.2,38.2h-4.5v-4.8h4.5V38.2z M25.8,33.4h4.8v4.8h-4.8V33.4z"/>
</svg>
