<?xml version="1.0" encoding="utf-8"?>
<!-- Generator: Adobe Illustrator 15.0.0, SVG Export Plug-In  -->
<!DOCTYPE svg PUBLIC "-//W3C//DTD SVG 1.1//EN" "http://www.w3.org/Graphics/SVG/1.1/DTD/svg11.dtd" [
	<!ENTITY ns_flows "http://ns.adobe.com/Flows/1.0/">
]>
<svg version="1.1"
	 xmlns="http://www.w3.org/2000/svg" xmlns:xlink="http://www.w3.org/1999/xlink" xmlns:a="http://ns.adobe.com/AdobeSVGViewerExtensions/3.0/"
	 x="0px" y="0px" width="4px" height="9px" viewBox="0 0 4 9" overflow="visible" enable-background="new 0 0 4 9"
	 xml:space="preserve">
<defs>
</defs>
<path fill="#FFFFFF" d="M0.32,1.921L0.32,1.921v2.878c0,0.884,0.716,1.601,1.6,1.601s1.6-0.717,1.6-1.601V1.921
	c0-0.884-0.716-1.601-1.6-1.601S0.32,1.037,0.32,1.921L0.32,1.921z M0,1.921C0,0.86,0.859,0,1.92,0s1.92,0.859,1.92,1.921v2.878
	c0,1.061-0.859,1.92-1.92,1.92S0,5.86,0,4.799V1.921L0,1.921z"/>
<path fill="#FFFFFF" d="M1.76,1.12v0.64c0,0.088,0.072,0.16,0.16,0.16s0.16-0.072,0.16-0.16V1.12c0-0.088-0.072-0.16-0.16-0.16
	S1.76,1.032,1.76,1.12L1.76,1.12z"/>
<path fill="#FFFFFF" d="M1.92,8.479L2.8,7.598c0.062-0.062,0.164-0.062,0.227,0s0.062,0.164,0,0.227L2.033,8.819
	C2.002,8.85,1.961,8.866,1.92,8.866S1.838,8.85,1.807,8.819l-1-1.002c-0.062-0.062-0.062-0.163,0-0.226s0.164-0.062,0.226,0
	L1.92,8.479z"/>
</svg>
