<?xml version="1.0" encoding="utf-8"?>
<!-- Generator: Adobe Illustrator 18.1.1, SVG Export Plug-In . SVG Version: 6.00 Build 0)  -->
<!DOCTYPE svg PUBLIC "-//W3C//DTD SVG 1.1//EN" "http://www.w3.org/Graphics/SVG/1.1/DTD/svg11.dtd">
<svg version="1.1" id="Layer_1" xmlns="http://www.w3.org/2000/svg" xmlns:xlink="http://www.w3.org/1999/xlink" x="0px" y="0px"
	 width="32px" height="32px" viewBox="0 0 32 32" enable-background="new 0 0 32 32" xml:space="preserve">
<path fill="#171717" d="M29.6,0H2.4C1.1,0,0,1,0,2.3v27.4C0,31,1.1,32,2.4,32h27.3c1.3,0,2.4-1,2.4-2.3V2.3C32,1,30.9,0,29.6,0z
	 M24,12.4v0.5c0,5.2-4,11.2-11.2,11.2c-2.2,0-4.3-0.7-6-1.8c0.3,0,0.6,0.1,0.9,0.1c1.8,0,3.5-0.6,4.9-1.7c-1.7,0-3.2-1.2-3.7-2.7
	c0.2,0,0.5,0.1,0.7,0.1c0.4,0,0.7,0,1-0.1c-1.8-0.4-3.2-2-3.2-3.9l0,0c0.5,0.3,1.1,0.5,1.8,0.5c-1.1-0.7-1.8-1.9-1.8-3.3
	c0-0.7,0.2-1.4,0.5-2c1.9,2.4,4.8,4,8.1,4.1c-0.1-0.3-0.1-0.6-0.1-0.9c0-2.2,1.8-3.9,3.9-3.9c1.1,0,2.2,0.5,2.9,1.2
	c0.9-0.2,1.7-0.5,2.5-1c-0.3,0.9-0.9,1.7-1.7,2.2c0.8-0.1,1.6-0.3,2.3-0.6C25.4,11.2,24.7,11.9,24,12.4z"/>
</svg>
