<?xml version="1.0" encoding="utf-8"?>
<!-- Generator: Adobe Illustrator 18.1.1, SVG Export Plug-In . SVG Version: 6.00 Build 0)  -->
<!DOCTYPE svg PUBLIC "-//W3C//DTD SVG 1.1//EN" "http://www.w3.org/Graphics/SVG/1.1/DTD/svg11.dtd">
<svg version="1.1" id="Layer_1" xmlns="http://www.w3.org/2000/svg" xmlns:xlink="http://www.w3.org/1999/xlink" x="0px" y="0px"
	 width="32px" height="32px" viewBox="0 0 32 32" enable-background="new 0 0 32 32" xml:space="preserve">
<path fill="#171717" d="M29.6,0H2.4C1.1,0,0,1,0,2.3v27.4C0,31,1.1,32,2.4,32h27.3c1.3,0,2.4-1,2.4-2.3V2.3C32,1,30.9,0,29.6,0z
	 M26,18.7h-4.6V32h-5.3V18.6h-4v-4h4v-4c0-3.3,1.3-5.3,5.3-5.3h4v4h-1.7c-1.2,0-2.3,1.1-2.3,2.3v3.1h5.3L26,18.7z"/>
</svg>
