<?xml version="1.0" encoding="utf-8"?>
<!-- Generator: Adobe Illustrator 18.1.1, SVG Export Plug-In . SVG Version: 6.00 Build 0)  -->
<!DOCTYPE svg PUBLIC "-//W3C//DTD SVG 1.1//EN" "http://www.w3.org/Graphics/SVG/1.1/DTD/svg11.dtd">
<svg version="1.1" id="Layer_1" xmlns="http://www.w3.org/2000/svg" xmlns:xlink="http://www.w3.org/1999/xlink" x="0px" y="0px"
	 width="32px" height="32px" viewBox="0 0 32 32" enable-background="new 0 0 32 32" xml:space="preserve">
<g>
	<path fill="#171717" d="M29.6,0H2.4C1.1,0,0,1,0,2.3v27.4C0,31,1.1,32,2.4,32h27.3c1.3,0,2.4-1,2.4-2.3V2.3C32,1,30.9,0,29.6,0z
		 M11.6,28.2c-4.3,0-6.4-2.1-6.4-4.3c0-1.1,0.5-2.6,2.3-3.7c1.9-1.1,4.4-1.3,5.7-1.4c-0.4-0.5-0.9-1.1-0.9-2c0-0.5,0.1-0.8,0.3-1.2
		c-0.3,0-0.7,0.1-1,0.1c-3.2,0-5-2.4-5-4.7c0-1.4,0.6-2.9,1.9-4c1.7-1.4,4-1.8,5.6-1.8h5.9l-1.9,1.2h-1.9c0.7,0.6,2.1,1.8,2.1,4
		c0,2.2-1.3,3.3-2.5,4.3c-0.4,0.4-0.8,0.8-0.8,1.5c0,0.7,0.4,1,0.8,1.3l1.1,0.8c1.3,1.1,2.5,2.1,2.5,4.2
		C19.5,25.3,16.8,28.2,11.6,28.2z M27.5,16.3h-3v3h-1.5v-3h-3v-1.5h3v-3h1.5v3h3V16.3z"/>
	<path fill="#171717" d="M15.9,11.8c0-2.2-1.3-5.5-3.8-5.5c-0.8,0-1.6,0.4-2.1,1C9.5,7.9,9.3,8.7,9.3,9.5c0,2,1.2,5.3,3.7,5.3
		c0.7,0,1.6-0.4,2-0.8C15.8,13.3,15.9,12.4,15.9,11.8z"/>
	<path fill="#171717" d="M14.2,19.7c-0.2,0-0.4,0-0.7,0c-0.3,0-1.9,0.1-3.1,0.5c-0.7,0.2-2.6,1-2.6,3.1c0,2.1,2.1,3.7,5.3,3.7
		c2.9,0,4.4-1.4,4.4-3.2C17.5,22.1,16.5,21.3,14.2,19.7z"/>
</g>
</svg>
