<?xml version="1.0" encoding="utf-8"?>
<!-- Generator: Adobe Illustrator 18.1.1, SVG Export Plug-In . SVG Version: 6.00 Build 0)  -->
<!DOCTYPE svg PUBLIC "-//W3C//DTD SVG 1.1//EN" "http://www.w3.org/Graphics/SVG/1.1/DTD/svg11.dtd">
<svg version="1.1" id="Layer_1" xmlns="http://www.w3.org/2000/svg" xmlns:xlink="http://www.w3.org/1999/xlink" x="0px" y="0px"
	 width="32px" height="32px" viewBox="0 0 32 32" enable-background="new 0 0 32 32" xml:space="preserve">
<path fill="#171717" d="M29.6,0H2.4C1.1,0,0,1,0,2.3v27.4C0,31,1.1,32,2.4,32h27.3c1.3,0,2.4-1,2.4-2.3V2.3C32,1,30.9,0,29.6,0z
	 M11.5,11.5c1.3-1.2,2.8-1.8,4.5-1.8c1.8,0,3.3,0.6,4.6,1.8c1.3,1.2,1.9,2.7,1.9,4.4s-0.6,3.2-1.9,4.4c-1.3,1.2-2.8,1.8-4.6,1.8
	s-3.3-0.6-4.5-1.8c-1.3-1.2-1.9-2.7-1.9-4.4S10.2,12.7,11.5,11.5z M28.4,27c0,0.4-0.1,0.7-0.4,0.9c-0.3,0.2-0.5,0.4-0.9,0.4H4.8
	c-0.4,0-0.7-0.1-0.9-0.4c-0.2-0.2-0.4-0.5-0.4-0.9V13.5h2.9C6.1,14.4,6,15.3,6,16.2c0,2.7,1,4.9,2.9,6.8s4.3,2.8,7,2.8
	c1.8,0,3.5-0.4,5-1.3s2.7-2,3.6-3.5s1.3-3.1,1.3-4.8c0-0.9-0.1-1.9-0.4-2.7h2.8V27H28.4z M28.4,8.4c0,0.4-0.1,0.7-0.4,1
	s-0.6,0.4-1,0.4h-3.6c-0.4,0-0.7-0.1-1-0.4c-0.3-0.3-0.4-0.6-0.4-1V5c0-0.4,0.1-0.7,0.4-1s0.6-0.4,1-0.4H27c0.4,0,0.7,0.1,1,0.4
	s0.4,0.6,0.4,1V8.4z"/>
</svg>
